# xmcd
#
# Track frame offsets:
#	150
#	23461
#	25292
#	48454
#	49495
#	62087
#	76168
#	93190
#	95925
#	151392
#	173248
#	186238
#	213828
#	226908
#	245698
#	267905
#	294484
#	322187
#
# Disc length: 4505 seconds
#
# Revision: 1
# Processed by: cddbd v1.4PL0 Copyright (c) Steve Scherf et al.
# Submitted via: audiograbber 1.80.04
#
DISCID=fb119712
DTITLE=Tim Maia - Tim Maia Racional
DYEAR=1974
DGENRE=Black Music
TTITLE0=Imunização Racional
TTITLE1=O grão mestre varonil
TTITLE2=Bom senso
TTITLE3=Energia Racional
TTITLE4=Leia o livro O universo em desencanto
TTITLE5=Contacto com o mundo racional
TTITLE6=Universo em desencanto
TTITLE7=You Don't Know What I Know
TTITLE8=Rational culture
TTITLE9=Quer queira,quer não queira
TTITLE10=Paz interior
TTITLE11=O caminho do bem
TTITLE12=Energia Racional
TTITLE13=Que legal
TTITLE14=Cultura Racional
TTITLE15=O dever de fazer propaganda deste conhecimento
TTITLE16=Guiné Bissau Moçambique e Angola Racional
TTITLE17=Imunização Racional que beleza
EXTD=
EXTT0=
EXTT1=
EXTT2=
EXTT3=
EXTT4=
EXTT5=
EXTT6=
EXTT7=
EXTT8=
EXTT9=
EXTT10=
EXTT11=
EXTT12=
EXTT13=
EXTT14=
EXTT15=
EXTT16=
EXTT17=
PLAYORDER=
